<svg width="109" height="17" viewBox="0 0 109 17" fill="none" xmlns="http://www.w3.org/2000/svg">
<path d="M45.9522 16.15C45.0322 16.15 44.2055 15.99 43.4722 15.67C42.7522 15.3367 42.1855 14.8834 41.7722 14.31C41.3589 13.7234 41.1455 13.05 41.1322 12.29H43.0722C43.1389 12.9434 43.4055 13.4967 43.8722 13.95C44.3522 14.39 45.0455 14.61 45.9522 14.61C46.8189 14.61 47.4989 14.3967 47.9922 13.97C48.4989 13.53 48.7522 12.97 48.7522 12.29C48.7522 11.7567 48.6055 11.3234 48.3122 10.99C48.0189 10.6567 47.6522 10.4034 47.2122 10.23C46.7722 10.0567 46.1789 9.87002 45.4322 9.67002C44.5122 9.43002 43.7722 9.19002 43.2122 8.95002C42.6655 8.71002 42.1922 8.33669 41.7922 7.83002C41.4055 7.31002 41.2122 6.61669 41.2122 5.75002C41.2122 4.99002 41.4055 4.31669 41.7922 3.73002C42.1789 3.14335 42.7189 2.69002 43.4122 2.37002C44.1189 2.05002 44.9255 1.89002 45.8322 1.89002C47.1389 1.89002 48.2055 2.21669 49.0322 2.87002C49.8722 3.52335 50.3455 4.39002 50.4522 5.47002H48.4522C48.3855 4.93669 48.1055 4.47002 47.6122 4.07002C47.1189 3.65669 46.4655 3.45002 45.6522 3.45002C44.8922 3.45002 44.2722 3.65002 43.7922 4.05002C43.3122 4.43669 43.0722 4.98336 43.0722 5.69002C43.0722 6.19669 43.2122 6.61002 43.4922 6.93002C43.7855 7.25002 44.1389 7.49669 44.5522 7.67002C44.9789 7.83002 45.5722 8.01669 46.3322 8.23002C47.2522 8.48336 47.9922 8.73669 48.5522 8.99002C49.1122 9.23002 49.5922 9.61002 49.9922 10.13C50.3922 10.6367 50.5922 11.33 50.5922 12.21C50.5922 12.89 50.4122 13.53 50.0522 14.13C49.6922 14.73 49.1589 15.2167 48.4522 15.59C47.7455 15.9634 46.9122 16.15 45.9522 16.15Z" fill="#138808"/>
<path d="M63.2705 10.11C63.2705 10.4567 63.2505 10.8234 63.2105 11.21H54.4505C54.5171 12.29 54.8838 13.1367 55.5505 13.75C56.2305 14.35 57.0505 14.65 58.0105 14.65C58.7971 14.65 59.4505 14.47 59.9705 14.11C60.5038 13.7367 60.8772 13.2434 61.0905 12.63H63.0505C62.7572 13.6834 62.1705 14.5434 61.2905 15.21C60.4105 15.8634 59.3171 16.19 58.0105 16.19C56.9705 16.19 56.0372 15.9567 55.2105 15.49C54.3972 15.0234 53.7572 14.3634 53.2905 13.51C52.8238 12.6434 52.5905 11.6434 52.5905 10.51C52.5905 9.37669 52.8171 8.38336 53.2705 7.53002C53.7238 6.67669 54.3572 6.02335 55.1705 5.57002C55.9972 5.10335 56.9438 4.87002 58.0105 4.87002C59.0505 4.87002 59.9705 5.09669 60.7705 5.55002C61.5705 6.00336 62.1838 6.63002 62.6105 7.43002C63.0505 8.21669 63.2705 9.11002 63.2705 10.11ZM61.3905 9.73002C61.3905 9.03669 61.2371 8.44336 60.9305 7.95002C60.6238 7.44336 60.2038 7.06336 59.6705 6.81002C59.1505 6.54336 58.5705 6.41002 57.9305 6.41002C57.0105 6.41002 56.2238 6.70336 55.5705 7.29002C54.9305 7.87669 54.5638 8.69002 54.4705 9.73002H61.3905Z" fill="#138808"/>
<path d="M64.9928 10.49C64.9928 9.37002 65.2195 8.39002 65.6728 7.55002C66.1262 6.69669 66.7462 6.03669 67.5328 5.57002C68.3328 5.10335 69.2195 4.87002 70.1928 4.87002C71.1528 4.87002 71.9862 5.07669 72.6928 5.49002C73.3995 5.90335 73.9262 6.42336 74.2728 7.05002V5.05002H76.1128V16.01H74.2728V13.97C73.9128 14.61 73.3728 15.1434 72.6528 15.57C71.9462 15.9834 71.1195 16.19 70.1728 16.19C69.1995 16.19 68.3195 15.95 67.5328 15.47C66.7462 14.99 66.1262 14.3167 65.6728 13.45C65.2195 12.5834 64.9928 11.5967 64.9928 10.49ZM74.2728 10.51C74.2728 9.68336 74.1062 8.96336 73.7728 8.35002C73.4395 7.73669 72.9862 7.27002 72.4128 6.95002C71.8528 6.61669 71.2328 6.45002 70.5528 6.45002C69.8728 6.45002 69.2528 6.61002 68.6928 6.93002C68.1328 7.25002 67.6862 7.71669 67.3528 8.33002C67.0195 8.94335 66.8528 9.66335 66.8528 10.49C66.8528 11.33 67.0195 12.0634 67.3528 12.69C67.6862 13.3034 68.1328 13.7767 68.6928 14.11C69.2528 14.43 69.8728 14.59 70.5528 14.59C71.2328 14.59 71.8528 14.43 72.4128 14.11C72.9862 13.7767 73.4395 13.3034 73.7728 12.69C74.1062 12.0634 74.2728 11.3367 74.2728 10.51Z" fill="#138808"/>
<path d="M81.0085 6.83002C81.3285 6.20335 81.7818 5.71669 82.3685 5.37002C82.9685 5.02335 83.6951 4.85002 84.5485 4.85002V6.73002H84.0685C82.0285 6.73002 81.0085 7.83669 81.0085 10.05V16.01H79.1885V5.05002H81.0085V6.83002Z" fill="#138808"/>
<path d="M85.9694 10.51C85.9694 9.37669 86.1961 8.39002 86.6494 7.55002C87.1027 6.69669 87.7294 6.03669 88.5294 5.57002C89.3427 5.10335 90.2694 4.87002 91.3094 4.87002C92.6561 4.87002 93.7627 5.19669 94.6294 5.85002C95.5094 6.50336 96.0894 7.41002 96.3694 8.57002H94.4094C94.2227 7.90336 93.8561 7.37669 93.3094 6.99002C92.7761 6.60336 92.1094 6.41002 91.3094 6.41002C90.2694 6.41002 89.4294 6.77002 88.7894 7.49002C88.1494 8.19669 87.8294 9.20336 87.8294 10.51C87.8294 11.83 88.1494 12.85 88.7894 13.57C89.4294 14.29 90.2694 14.65 91.3094 14.65C92.1094 14.65 92.7761 14.4634 93.3094 14.09C93.8427 13.7167 94.2094 13.1834 94.4094 12.49H96.3694C96.0761 13.61 95.4894 14.51 94.6094 15.19C93.7294 15.8567 92.6294 16.19 91.3094 16.19C90.2694 16.19 89.3427 15.9567 88.5294 15.49C87.7294 15.0234 87.1027 14.3634 86.6494 13.51C86.1961 12.6567 85.9694 11.6567 85.9694 10.51Z" fill="#138808"/>
<path d="M104.238 4.85002C105.064 4.85002 105.811 5.03002 106.478 5.39002C107.144 5.73669 107.664 6.26336 108.038 6.97002C108.424 7.67669 108.618 8.53669 108.618 9.55002V16.01H106.818V9.81002C106.818 8.71669 106.544 7.88335 105.998 7.31002C105.451 6.72335 104.704 6.43002 103.758 6.43002C102.798 6.43002 102.031 6.73002 101.458 7.33002C100.898 7.93002 100.618 8.80335 100.618 9.95002V16.01H98.7978V1.21002H100.618V6.61002C100.978 6.05002 101.471 5.61669 102.098 5.31002C102.738 5.00335 103.451 4.85002 104.238 4.85002Z" fill="#138808"/>
<path d="M4.34 2.28C5.86 2.28 7.17333 2.56667 8.28 3.14C9.4 3.7 10.2533 4.50667 10.84 5.56C11.44 6.61334 11.74 7.85334 11.74 9.28001C11.74 10.7067 11.44 11.9467 10.84 13C10.2533 14.04 9.4 14.84 8.28 15.4C7.17333 15.9467 5.86 16.22 4.34 16.22H0V2.28H4.34ZM4.34 14.72C6.14 14.72 7.51333 14.2467 8.46 13.3C9.40667 12.34 9.88 11 9.88 9.28001C9.88 7.54667 9.4 6.19334 8.44 5.22C7.49333 4.24667 6.12667 3.76 4.34 3.76H1.82V14.72H4.34Z" fill="#FF9933"/>
<path d="M24.0084 10.14C24.0084 10.4867 23.9884 10.8533 23.9484 11.24H15.1884C15.2551 12.32 15.6218 13.1667 16.2884 13.78C16.9684 14.38 17.7884 14.68 18.7484 14.68C19.5351 14.68 20.1884 14.5 20.7084 14.14C21.2418 13.7667 21.6151 13.2733 21.8284 12.66H23.7884C23.4951 13.7133 22.9084 14.5733 22.0284 15.24C21.1484 15.8933 20.0551 16.22 18.7484 16.22C17.7084 16.22 16.7751 15.9867 15.9484 15.52C15.1351 15.0533 14.4951 14.3933 14.0284 13.54C13.5618 12.6733 13.3284 11.6733 13.3284 10.54C13.3284 9.40667 13.5551 8.41334 14.0084 7.56001C14.4618 6.70667 15.0951 6.05334 15.9084 5.60001C16.7351 5.13334 17.6818 4.90001 18.7484 4.90001C19.7884 4.90001 20.7084 5.12667 21.5084 5.58001C22.3084 6.03334 22.9218 6.66001 23.3484 7.46001C23.7884 8.24667 24.0084 9.14001 24.0084 10.14ZM22.1284 9.76001C22.1284 9.06667 21.9751 8.47334 21.6684 7.98001C21.3618 7.47334 20.9418 7.09334 20.4084 6.84001C19.8884 6.57334 19.3084 6.44001 18.6684 6.44001C17.7484 6.44001 16.9618 6.73334 16.3084 7.32001C15.6684 7.90667 15.3018 8.72001 15.2084 9.76001H22.1284Z" fill="#FF9933"/>
<path d="M30.2908 16.22C29.4508 16.22 28.6974 16.08 28.0308 15.8C27.3641 15.5067 26.8374 15.1067 26.4508 14.6C26.0641 14.08 25.8508 13.4867 25.8108 12.82H27.6908C27.7441 13.3667 27.9974 13.8133 28.4508 14.16C28.9174 14.5067 29.5241 14.68 30.2708 14.68C30.9641 14.68 31.5108 14.5267 31.9108 14.22C32.3108 13.9133 32.5108 13.5267 32.5108 13.06C32.5108 12.58 32.2974 12.2267 31.8708 12C31.4441 11.76 30.7841 11.5267 29.8908 11.3C29.0774 11.0867 28.4108 10.8733 27.8908 10.66C27.3841 10.4333 26.9441 10.1067 26.5708 9.68001C26.2108 9.24001 26.0308 8.66667 26.0308 7.96001C26.0308 7.40001 26.1974 6.88667 26.5308 6.42C26.8641 5.95334 27.3374 5.58667 27.9508 5.32001C28.5641 5.04001 29.2641 4.90001 30.0508 4.90001C31.2641 4.90001 32.2441 5.20667 32.9908 5.82001C33.7375 6.43334 34.1374 7.27334 34.1908 8.34001H32.3708C32.3308 7.76667 32.0974 7.30667 31.6708 6.96001C31.2574 6.61334 30.6974 6.44001 29.9908 6.44001C29.3374 6.44001 28.8174 6.58001 28.4308 6.86001C28.0441 7.14001 27.8508 7.50667 27.8508 7.96001C27.8508 8.32001 27.9641 8.62001 28.1908 8.86001C28.4308 9.08667 28.7241 9.27334 29.0708 9.42001C29.4308 9.55334 29.9241 9.70667 30.5508 9.88001C31.3374 10.0933 31.9774 10.3067 32.4708 10.52C32.9641 10.72 33.3841 11.0267 33.7308 11.44C34.0908 11.8533 34.2774 12.3933 34.2908 13.06C34.2908 13.66 34.1241 14.2 33.7908 14.68C33.4574 15.16 32.9841 15.54 32.3708 15.82C31.7708 16.0867 31.0774 16.22 30.2908 16.22Z" fill="#FF9933"/>
<path d="M37.8 2.50002C37.4533 2.50002 37.16 2.38002 36.92 2.14002C36.68 1.90002 36.56 1.60669 36.56 1.26002C36.56 0.913353 36.68 0.62002 36.92 0.38002C37.16 0.14002 37.4533 0.0200195 37.8 0.0200195C38.1333 0.0200195 38.4133 0.14002 38.64 0.38002C38.88 0.62002 39 0.913353 39 1.26002C39 1.60669 38.88 1.90002 38.64 2.14002C38.4133 2.38002 38.1333 2.50002 37.8 2.50002ZM38.68 4.90001V16.22H36.86V4.90001H38.68Z" fill="#FF9933"/>
<path d="M12 3.25H40V5H12V3.25Z" fill="#FF9933"/>
</svg>
