<svg width="646" height="97" viewBox="0 0 646 97" fill="none" xmlns="http://www.w3.org/2000/svg">
<path d="M25.7828 13.426C34.8128 13.426 42.615 15.129 49.1894 18.535C55.843 21.8619 60.9125 26.6541 64.3977 32.9116C67.9622 39.1692 69.7444 46.5358 69.7444 55.0112C69.7444 63.4867 67.9622 70.8532 64.3977 77.1108C60.9125 83.2892 55.843 88.0418 49.1894 91.3686C42.615 94.6162 34.8128 96.24 25.7828 96.24H0V13.426H25.7828ZM25.7828 87.3289C36.4762 87.3289 44.6348 84.517 50.2587 78.893C55.8826 73.1899 58.6946 65.2293 58.6946 55.0112C58.6946 44.7139 55.843 36.6741 50.1399 30.8918C44.516 25.1095 36.397 22.2183 25.7828 22.2183H10.8122V87.3289H25.7828Z" fill="#FAFAFA"/>
<path d="M142.628 60.1203C142.628 62.1798 142.509 64.358 142.272 66.6551H90.2307C90.6267 73.0711 92.805 78.101 96.7655 81.7446C100.805 85.3091 105.677 87.0913 111.38 87.0913C116.053 87.0913 119.934 86.0219 123.024 83.8833C126.192 81.6654 128.41 78.7346 129.677 75.091H141.321C139.578 81.3486 136.093 86.4576 130.865 90.4181C125.638 94.2994 119.142 96.24 111.38 96.24C105.201 96.24 99.6567 94.8539 94.7456 92.0815C89.9138 89.3092 86.1117 85.3883 83.3394 80.3188C80.5671 75.1702 79.1809 69.2294 79.1809 62.4966C79.1809 55.7637 80.5275 49.8626 83.2206 44.7932C85.9137 39.7237 89.6762 35.8424 94.508 33.1493C99.419 30.3769 105.043 28.9908 111.38 28.9908C117.558 28.9908 123.024 30.3373 127.776 33.0305C132.529 35.7236 136.172 39.4465 138.707 44.1991C141.321 48.8725 142.628 54.1795 142.628 60.1203ZM131.459 57.8628C131.459 53.7439 130.549 50.219 128.727 47.2883C126.905 44.2783 124.41 42.0208 121.241 40.5158C118.152 38.9316 114.707 38.1395 110.904 38.1395C105.439 38.1395 100.766 39.8821 96.8843 43.3674C93.0822 46.8526 90.904 51.6844 90.3495 57.8628H131.459Z" fill="#FAFAFA"/>
<path d="M179.95 96.24C174.96 96.24 170.484 95.4083 166.524 93.7449C162.563 92.0023 159.434 89.626 157.137 86.616C154.84 83.5268 153.573 80.002 153.335 76.0415H164.504C164.821 79.2891 166.326 81.9426 169.019 84.0021C171.791 86.0616 175.395 87.0913 179.831 87.0913C183.95 87.0913 187.198 86.1804 189.574 84.3585C191.95 82.5367 193.138 80.2396 193.138 77.4673C193.138 74.6157 191.871 72.5166 189.336 71.1701C186.802 69.7443 182.881 68.3581 177.574 67.0116C172.742 65.7442 168.781 64.4768 165.692 63.2095C162.682 61.8629 160.068 59.9223 157.85 57.3875C155.712 54.7736 154.642 51.3676 154.642 47.1695C154.642 43.8426 155.632 40.793 157.613 38.0207C159.593 35.2483 162.405 33.0701 166.049 31.4859C169.692 29.8225 173.851 28.9908 178.524 28.9908C185.732 28.9908 191.554 30.8126 195.99 34.4562C200.426 38.0999 202.802 43.0901 203.119 49.4269H192.307C192.069 46.0209 190.683 43.2882 188.148 41.2287C185.693 39.1692 182.366 38.1395 178.168 38.1395C174.286 38.1395 171.197 38.9712 168.9 40.6346C166.603 42.298 165.454 44.4763 165.454 47.1695C165.454 49.3081 166.128 51.0904 167.474 52.5161C168.9 53.8627 170.643 54.9716 172.702 55.8429C174.841 56.635 177.772 57.546 181.494 58.5757C186.168 59.8431 189.97 61.1104 192.901 62.3778C195.831 63.5659 198.327 65.3877 200.386 67.8433C202.525 70.2988 203.634 73.5068 203.713 77.4673C203.713 81.0317 202.723 84.2397 200.743 87.0913C198.762 89.9428 195.95 92.2003 192.307 93.8637C188.742 95.4479 184.623 96.24 179.95 96.24Z" fill="#FAFAFA"/>
<path d="M224.56 14.7331C222.501 14.7331 220.758 14.0202 219.332 12.5944C217.907 11.1686 217.194 9.42598 217.194 7.36652C217.194 5.30707 217.907 3.56445 219.332 2.13867C220.758 0.71289 222.501 0 224.56 0C226.54 0 228.204 0.71289 229.55 2.13867C230.976 3.56445 231.689 5.30707 231.689 7.36652C231.689 9.42598 230.976 11.1686 229.55 12.5944C228.204 14.0202 226.54 14.7331 224.56 14.7331ZM229.788 28.9908V96.24H218.976V28.9908H229.788Z" fill="#FAFAFA"/>
<path d="M71.289 19.1885H237.63V29.5848H71.289V19.1885Z" fill="#FAFAFA"/>
<path d="M273.264 96.0024C267.799 96.0024 262.888 95.0519 258.531 93.1508C254.254 91.1706 250.887 88.4774 248.432 85.0714C245.976 81.5862 244.709 77.5861 244.63 73.0711H256.155C256.551 76.9524 258.135 80.2396 260.908 82.9327C263.759 85.5467 267.878 86.8536 273.264 86.8536C278.413 86.8536 282.453 85.5863 285.383 83.0516C288.393 80.4376 289.898 77.1108 289.898 73.0711C289.898 69.9027 289.027 67.3284 287.284 65.3481C285.542 63.3679 283.364 61.8629 280.75 60.8332C278.136 59.8034 274.611 58.6945 270.175 57.5063C264.71 56.0806 260.313 54.6548 256.987 53.229C253.739 51.8032 250.927 49.5853 248.551 46.5754C246.254 43.4862 245.105 39.3673 245.105 34.2186C245.105 29.7036 246.254 25.7035 248.551 22.2183C250.848 18.7331 254.056 16.0399 258.175 14.1389C262.373 12.2378 267.165 11.2873 272.551 11.2873C280.314 11.2873 286.651 13.228 291.562 17.1093C296.552 20.9905 299.364 26.1392 299.998 32.5552H288.116C287.72 29.3868 286.057 26.6145 283.126 24.2382C280.195 21.7826 276.314 20.5549 271.482 20.5549C266.967 20.5549 263.284 21.743 260.432 24.1193C257.581 26.4164 256.155 29.664 256.155 33.8622C256.155 36.8721 256.987 39.3277 258.65 41.2287C260.393 43.1297 262.492 44.5951 264.947 45.6248C267.482 46.5754 271.007 47.6843 275.522 48.9517C280.987 50.4567 285.383 51.9616 288.71 53.4666C292.037 54.8924 294.889 57.1499 297.265 60.2391C299.641 63.2491 300.829 67.368 300.829 72.5958C300.829 76.6356 299.76 80.4376 297.621 84.0021C295.483 87.5665 292.314 90.4577 288.116 92.6756C283.918 94.8934 278.967 96.0024 273.264 96.0024Z" fill="#EEEEEE"/>
<path d="M376.148 60.1203C376.148 62.1797 376.029 64.358 375.791 66.6551H323.75C324.146 73.0711 326.325 78.1009 330.285 81.7446C334.325 85.309 339.196 87.0913 344.899 87.0913C349.573 87.0913 353.454 86.0219 356.543 83.8833C359.712 81.6654 361.93 78.7346 363.197 75.091H374.841C373.098 81.3485 369.613 86.4576 364.385 90.4181C359.157 94.2994 352.662 96.24 344.899 96.24C338.721 96.24 333.176 94.8538 328.265 92.0815C323.434 89.3091 319.632 85.3882 316.859 80.3188C314.087 75.1702 312.701 69.2294 312.701 62.4966C312.701 55.7637 314.047 49.8626 316.74 44.7931C319.433 39.7237 323.196 35.8424 328.028 33.1493C332.939 30.3769 338.563 28.9908 344.899 28.9908C351.078 28.9908 356.543 30.3373 361.296 33.0305C366.049 35.7236 369.692 39.4465 372.227 44.1991C374.841 48.8725 376.148 54.1795 376.148 60.1203ZM364.979 57.8628C364.979 53.7439 364.068 50.219 362.246 47.2883C360.425 44.2783 357.93 42.0208 354.761 40.5158C351.672 38.9316 348.226 38.1395 344.424 38.1395C338.959 38.1395 334.285 39.8821 330.404 43.3674C326.602 46.8526 324.424 51.6844 323.869 57.8628H364.979Z" fill="#EEEEEE"/>
<path d="M386.38 62.3778C386.38 55.7241 387.726 49.9022 390.42 44.912C393.113 39.8425 396.796 35.9216 401.469 33.1493C406.222 30.3769 411.489 28.9908 417.272 28.9908C422.975 28.9908 427.925 30.2185 432.124 32.674C436.322 35.1295 439.451 38.2187 441.51 41.9416V30.0601H452.441V95.1707H441.51V83.0516C439.371 86.8536 436.163 90.022 431.886 92.5568C427.688 95.0123 422.777 96.24 417.153 96.24C411.371 96.24 406.143 94.8142 401.469 91.9627C396.796 89.1111 393.113 85.111 390.42 79.9624C387.726 74.8137 386.38 68.9522 386.38 62.3778ZM441.51 62.4966C441.51 57.5856 440.52 53.3082 438.54 49.6646C436.559 46.0209 433.866 43.2485 430.46 41.3475C427.133 39.3673 423.45 38.3771 419.41 38.3771C415.371 38.3771 411.687 39.3277 408.361 41.2287C405.034 43.1297 402.38 45.9021 400.4 49.5457C398.42 53.1894 397.43 57.4667 397.43 62.3778C397.43 67.368 398.42 71.7245 400.4 75.4474C402.38 79.0911 405.034 81.903 408.361 83.8833C411.687 85.7843 415.371 86.7348 419.41 86.7348C423.45 86.7348 427.133 85.7843 430.46 83.8833C433.866 81.903 436.559 79.0911 438.54 75.4474C440.52 71.7245 441.51 67.4076 441.51 62.4966Z" fill="#EEEEEE"/>
<path d="M481.525 40.6346C483.426 36.9117 486.119 34.0206 489.604 31.9611C493.168 29.9017 497.485 28.8719 502.555 28.8719V40.0405H499.703C487.584 40.0405 481.525 46.615 481.525 59.7638V95.1707H470.712V30.0601H481.525V40.6346Z" fill="#EEEEEE"/>
<path d="M510.996 62.4966C510.996 55.7637 512.343 49.9022 515.036 44.912C517.729 39.8425 521.452 35.9216 526.205 33.1493C531.036 30.3769 536.542 28.9908 542.72 28.9908C550.72 28.9908 557.294 30.9314 562.443 34.8127C567.671 38.694 571.117 44.0802 572.78 50.9715H561.136C560.027 47.011 557.849 43.8822 554.601 41.5851C551.433 39.288 547.472 38.1395 542.72 38.1395C536.542 38.1395 531.551 40.2782 527.749 44.5555C523.947 48.7536 522.046 54.734 522.046 62.4966C522.046 70.3384 523.947 76.3979 527.749 80.6753C531.551 84.9526 536.542 87.0913 542.72 87.0913C547.472 87.0913 551.433 85.9823 554.601 83.7644C557.77 81.5466 559.948 78.3782 561.136 74.2592H572.78C571.037 80.9129 567.552 86.2596 562.324 90.2993C557.096 94.2598 550.562 96.24 542.72 96.24C536.542 96.24 531.036 94.8538 526.205 92.0815C521.452 89.3091 517.729 85.3882 515.036 80.3188C512.343 75.2494 510.996 69.3086 510.996 62.4966Z" fill="#EEEEEE"/>
<path d="M619.524 28.8719C624.435 28.8719 628.871 29.9413 632.832 32.0799C636.792 34.1394 639.881 37.2682 642.099 41.4663C644.396 45.6645 645.545 50.7735 645.545 56.7935V95.1707H634.852V58.338C634.852 51.8428 633.228 46.8922 629.98 43.4862C626.733 40.0009 622.297 38.2583 616.673 38.2583C610.97 38.2583 606.415 40.0405 603.009 43.605C599.682 47.1694 598.019 52.3577 598.019 59.1698V95.1707H587.207V7.24762H598.019V39.3277C600.158 36.0008 603.088 33.4265 606.811 31.6047C610.613 29.7829 614.851 28.8719 619.524 28.8719Z" fill="#EEEEEE"/>
</svg>
