<svg width="766" height="217" viewBox="0 0 766 217" fill="none" xmlns="http://www.w3.org/2000/svg">
<g filter="url(#filter0_d_182_315)">
<path d="M85.7828 73.426C94.8128 73.426 102.615 75.129 109.189 78.535C115.843 81.8618 120.912 86.654 124.398 92.9116C127.962 99.1692 129.744 106.536 129.744 115.011C129.744 123.487 127.962 130.853 124.398 137.111C120.912 143.289 115.843 148.042 109.189 151.369C102.615 154.616 94.8128 156.24 85.7828 156.24H60V73.426H85.7828ZM85.7828 147.329C96.4762 147.329 104.635 144.517 110.259 138.893C115.883 133.19 118.695 125.229 118.695 115.011C118.695 104.714 115.843 96.6741 110.14 90.8918C104.516 85.1095 96.397 82.2183 85.7828 82.2183H70.8122V147.329H85.7828Z" fill="#FAFAFA"/>
<path d="M202.628 120.12C202.628 122.18 202.509 124.358 202.272 126.655H150.231C150.627 133.071 152.805 138.101 156.765 141.745C160.805 145.309 165.677 147.091 171.38 147.091C176.053 147.091 179.934 146.022 183.024 143.883C186.192 141.665 188.41 138.735 189.677 135.091H201.321C199.578 141.349 196.093 146.458 190.865 150.418C185.638 154.299 179.142 156.24 171.38 156.24C165.201 156.24 159.657 154.854 154.746 152.082C149.914 149.309 146.112 145.388 143.339 140.319C140.567 135.17 139.181 129.229 139.181 122.497C139.181 115.764 140.527 109.863 143.221 104.793C145.914 99.7237 149.676 95.8424 154.508 93.1493C159.419 90.3769 165.043 88.9908 171.38 88.9908C177.558 88.9908 183.024 90.3373 187.776 93.0305C192.529 95.7236 196.172 99.4465 198.707 104.199C201.321 108.872 202.628 114.18 202.628 120.12ZM191.459 117.863C191.459 113.744 190.549 110.219 188.727 107.288C186.905 104.278 184.41 102.021 181.241 100.516C178.152 98.9316 174.707 98.1395 170.904 98.1395C165.439 98.1395 160.766 99.8821 156.884 103.367C153.082 106.853 150.904 111.684 150.349 117.863H191.459Z" fill="#FAFAFA"/>
<path d="M239.95 156.24C234.96 156.24 230.484 155.408 226.524 153.745C222.563 152.002 219.434 149.626 217.137 146.616C214.84 143.527 213.573 140.002 213.335 136.041H224.504C224.821 139.289 226.326 141.943 229.019 144.002C231.791 146.062 235.395 147.091 239.831 147.091C243.95 147.091 247.198 146.18 249.574 144.359C251.95 142.537 253.138 140.24 253.138 137.467C253.138 134.616 251.871 132.517 249.336 131.17C246.802 129.744 242.881 128.358 237.574 127.012C232.742 125.744 228.781 124.477 225.692 123.209C222.682 121.863 220.068 119.922 217.85 117.388C215.712 114.774 214.642 111.368 214.642 107.169C214.642 103.843 215.632 100.793 217.613 98.0207C219.593 95.2483 222.405 93.0701 226.049 91.4859C229.692 89.8225 233.851 88.9908 238.524 88.9908C245.732 88.9908 251.554 90.8126 255.99 94.4562C260.426 98.0999 262.802 103.09 263.119 109.427H252.307C252.069 106.021 250.683 103.288 248.148 101.229C245.693 99.1692 242.366 98.1395 238.168 98.1395C234.286 98.1395 231.197 98.9712 228.9 100.635C226.603 102.298 225.454 104.476 225.454 107.169C225.454 109.308 226.128 111.09 227.474 112.516C228.9 113.863 230.643 114.972 232.702 115.843C234.841 116.635 237.772 117.546 241.494 118.576C246.168 119.843 249.97 121.11 252.901 122.378C255.831 123.566 258.327 125.388 260.386 127.843C262.525 130.299 263.634 133.507 263.713 137.467C263.713 141.032 262.723 144.24 260.743 147.091C258.762 149.943 255.95 152.2 252.307 153.864C248.742 155.448 244.623 156.24 239.95 156.24Z" fill="#FAFAFA"/>
<path d="M284.56 74.733C282.501 74.733 280.758 74.0202 279.332 72.5944C277.907 71.1686 277.194 69.426 277.194 67.3665C277.194 65.3071 277.907 63.5644 279.332 62.1387C280.758 60.7129 282.501 60 284.56 60C286.54 60 288.204 60.7129 289.55 62.1387C290.976 63.5644 291.689 65.3071 291.689 67.3665C291.689 69.426 290.976 71.1686 289.55 72.5944C288.204 74.0202 286.54 74.733 284.56 74.733ZM289.788 88.9908V156.24H278.976V88.9908H289.788Z" fill="#FAFAFA"/>
<path d="M131.289 79.1885H297.63V89.5848H131.289V79.1885Z" fill="#FAFAFA"/>
<path d="M333.264 156.002C327.799 156.002 322.888 155.052 318.531 153.151C314.254 151.171 310.887 148.477 308.432 145.071C305.976 141.586 304.709 137.586 304.63 133.071H316.155C316.551 136.952 318.135 140.24 320.908 142.933C323.759 145.547 327.878 146.854 333.264 146.854C338.413 146.854 342.453 145.586 345.383 143.052C348.393 140.438 349.898 137.111 349.898 133.071C349.898 129.903 349.027 127.328 347.284 125.348C345.542 123.368 343.364 121.863 340.75 120.833C338.136 119.803 334.611 118.694 330.175 117.506C324.71 116.081 320.313 114.655 316.987 113.229C313.739 111.803 310.927 109.585 308.551 106.575C306.254 103.486 305.105 99.3673 305.105 94.2186C305.105 89.7036 306.254 85.7035 308.551 82.2183C310.848 78.7331 314.056 76.0399 318.175 74.1389C322.373 72.2379 327.165 71.2873 332.551 71.2873C340.314 71.2873 346.651 73.228 351.562 77.1093C356.552 80.9906 359.364 86.1392 359.998 92.5552H348.116C347.72 89.3868 346.057 86.6145 343.126 84.2382C340.195 81.7827 336.314 80.5549 331.482 80.5549C326.967 80.5549 323.284 81.743 320.432 84.1193C317.581 86.4164 316.155 89.664 316.155 93.8622C316.155 96.8722 316.987 99.3277 318.65 101.229C320.393 103.13 322.492 104.595 324.947 105.625C327.482 106.575 331.007 107.684 335.522 108.952C340.987 110.457 345.383 111.962 348.71 113.467C352.037 114.892 354.889 117.15 357.265 120.239C359.641 123.249 360.829 127.368 360.829 132.596C360.829 136.636 359.76 140.438 357.621 144.002C355.483 147.567 352.314 150.458 348.116 152.676C343.918 154.893 338.967 156.002 333.264 156.002Z" fill="#EEEEEE"/>
<path d="M436.148 120.12C436.148 122.18 436.029 124.358 435.791 126.655H383.75C384.146 133.071 386.325 138.101 390.285 141.745C394.325 145.309 399.196 147.091 404.899 147.091C409.573 147.091 413.454 146.022 416.543 143.883C419.712 141.665 421.93 138.735 423.197 135.091H434.841C433.098 141.349 429.613 146.458 424.385 150.418C419.157 154.299 412.662 156.24 404.899 156.24C398.721 156.24 393.176 154.854 388.265 152.081C383.434 149.309 379.632 145.388 376.859 140.319C374.087 135.17 372.701 129.229 372.701 122.497C372.701 115.764 374.047 109.863 376.74 104.793C379.433 99.7237 383.196 95.8424 388.028 93.1493C392.939 90.3769 398.563 88.9908 404.899 88.9908C411.078 88.9908 416.543 90.3373 421.296 93.0305C426.049 95.7236 429.692 99.4465 432.227 104.199C434.841 108.872 436.148 114.18 436.148 120.12ZM424.979 117.863C424.979 113.744 424.068 110.219 422.246 107.288C420.425 104.278 417.93 102.021 414.761 100.516C411.672 98.9316 408.226 98.1395 404.424 98.1395C398.959 98.1395 394.285 99.8821 390.404 103.367C386.602 106.853 384.424 111.684 383.869 117.863H424.979Z" fill="#EEEEEE"/>
<path d="M446.38 122.378C446.38 115.724 447.726 109.902 450.42 104.912C453.113 99.8425 456.796 95.9216 461.469 93.1493C466.222 90.3769 471.489 88.9908 477.272 88.9908C482.975 88.9908 487.925 90.2185 492.124 92.674C496.322 95.1295 499.451 98.2187 501.51 101.942V90.0601H512.441V155.171H501.51V143.052C499.371 146.854 496.163 150.022 491.886 152.557C487.688 155.012 482.777 156.24 477.153 156.24C471.371 156.24 466.143 154.814 461.469 151.963C456.796 149.111 453.113 145.111 450.42 139.962C447.726 134.814 446.38 128.952 446.38 122.378ZM501.51 122.497C501.51 117.586 500.52 113.308 498.54 109.665C496.559 106.021 493.866 103.249 490.46 101.348C487.133 99.3673 483.45 98.3771 479.41 98.3771C475.371 98.3771 471.687 99.3277 468.361 101.229C465.034 103.13 462.38 105.902 460.4 109.546C458.42 113.189 457.43 117.467 457.43 122.378C457.43 127.368 458.42 131.725 460.4 135.447C462.38 139.091 465.034 141.903 468.361 143.883C471.687 145.784 475.371 146.735 479.41 146.735C483.45 146.735 487.133 145.784 490.46 143.883C493.866 141.903 496.559 139.091 498.54 135.447C500.52 131.725 501.51 127.408 501.51 122.497Z" fill="#EEEEEE"/>
<path d="M541.525 100.635C543.426 96.9118 546.119 94.0206 549.604 91.9611C553.168 89.9017 557.485 88.8719 562.555 88.8719V100.041H559.703C547.584 100.041 541.525 106.615 541.525 119.764V155.171H530.712V90.0601H541.525V100.635Z" fill="#EEEEEE"/>
<path d="M570.996 122.497C570.996 115.764 572.343 109.902 575.036 104.912C577.729 99.8425 581.452 95.9216 586.205 93.1493C591.036 90.3769 596.542 88.9908 602.72 88.9908C610.72 88.9908 617.294 90.9314 622.443 94.8127C627.671 98.694 631.117 104.08 632.78 110.972H621.136C620.027 107.011 617.849 103.882 614.601 101.585C611.433 99.2881 607.472 98.1395 602.72 98.1395C596.542 98.1395 591.551 100.278 587.749 104.556C583.947 108.754 582.046 114.734 582.046 122.497C582.046 130.338 583.947 136.398 587.749 140.675C591.551 144.953 596.542 147.091 602.72 147.091C607.472 147.091 611.433 145.982 614.601 143.764C617.77 141.547 619.948 138.378 621.136 134.259H632.78C631.037 140.913 627.552 146.26 622.324 150.299C617.096 154.26 610.562 156.24 602.72 156.24C596.542 156.24 591.036 154.854 586.205 152.081C581.452 149.309 577.729 145.388 575.036 140.319C572.343 135.249 570.996 129.309 570.996 122.497Z" fill="#EEEEEE"/>
<path d="M679.524 88.8719C684.435 88.8719 688.871 89.9413 692.832 92.08C696.792 94.1394 699.881 97.2682 702.099 101.466C704.396 105.664 705.545 110.774 705.545 116.793V155.171H694.852V118.338C694.852 111.843 693.228 106.892 689.98 103.486C686.733 100.001 682.297 98.2583 676.673 98.2583C670.97 98.2583 666.415 100.041 663.009 103.605C659.682 107.169 658.019 112.358 658.019 119.17V155.171H647.207V67.2476H658.019V99.3277C660.158 96.0008 663.088 93.4265 666.811 91.6047C670.613 89.7829 674.851 88.8719 679.524 88.8719Z" fill="#EEEEEE"/>
</g>
<defs>
<filter id="filter0_d_182_315" x="-24" y="-16" width="813.545" height="248.24" filterUnits="userSpaceOnUse" color-interpolation-filters="sRGB">
<feFlood flood-opacity="0" result="BackgroundImageFix"/>
<feColorMatrix in="SourceAlpha" type="matrix" values="0 0 0 0 0 0 0 0 0 0 0 0 0 0 0 0 0 0 127 0" result="hardAlpha"/>
<feOffset/>
<feGaussianBlur stdDeviation="30"/>
<feComposite in2="hardAlpha" operator="out"/>
<feColorMatrix type="matrix" values="0 0 0 0 0 0 0 0 0 0 0 0 0 0 0 0 0 0 0.15 0"/>
<feBlend mode="normal" in2="BackgroundImageFix" result="effect1_dropShadow_182_315"/>
<feBlend mode="normal" in="SourceGraphic" in2="effect1_dropShadow_182_315" result="shape"/>
</filter>
</defs>
</svg>
